<?xml version="1.0" ?><!DOCTYPE svg  PUBLIC '-//W3C//DTD SVG 1.1//EN'  'http://www.w3.org/Graphics/SVG/1.1/DTD/svg11.dtd'><svg height="512px" style="enable-background:new 0 0 512 512;" version="1.1" viewBox="0 0 512 512" width="512px" xml:space="preserve" xmlns="http://www.w3.org/2000/svg" xmlns:xlink="http://www.w3.org/1999/xlink"><g id="形状_1_3_" style="enable-background:new    ;"><g id="形状_1"><g><path d="M300.633,108.661c-18.393,9.169-30.902,26.012-31.535,45.423     c27.34,4.673,48.241,27.757,48.241,55.573c0,31.433-26.278,56.677-58.45,56.677c-35.586,0-59.836-31.119-59.209-65.991     c0-50.979,42.548-92.241,95.123-92.241c1.655,0,3.294,0.056,4.925,0.139c-13.405-6.098-28.292-9.499-43.95-9.499     c-58.396,0-105.648,47.252-105.648,105.646c0,58.842,47.252,106.094,105.648,106.094S361.87,263.229,361.87,204.387     C361.87,162.004,336.74,125.498,300.633,108.661z M301.313,108.319c-0.526-0.035-1.057-0.053-1.585-0.079     c0.304,0.138,0.604,0.28,0.905,0.42C300.86,108.548,301.084,108.43,301.313,108.319z" style="fill-rule:evenodd;clip-rule:evenodd;fill:#E60012;"/></g></g></g><g id="形状_1_2_" style="enable-background:new    ;"><g id="形状_1_1_"><g><path d="M116.782,353.838c-16.081,0-29.124,13.045-29.124,29.127     s13.043,29.123,29.124,29.123c16.081,0,29.124-13.041,29.124-29.123S132.863,353.838,116.782,353.838z M116.782,398.858     c-6.869,0-12.442-7.119-12.442-15.894c0-8.778,5.573-15.894,12.442-15.894s12.44,7.115,12.44,15.894     C129.222,391.739,123.651,398.858,116.782,398.858z M338.032,353.838c-16.078,0-29.123,13.045-29.123,29.127     s13.045,29.123,29.123,29.123c16.086,0,29.127-13.041,29.127-29.123S354.118,353.838,338.032,353.838z M338.032,398.858     c-6.867,0-12.437-7.119-12.437-15.894c0-8.778,5.569-15.894,12.437-15.894c6.871,0,12.444,7.115,12.444,15.894     C350.477,391.739,344.903,398.858,338.032,398.858z M486.006,382.965c0-16.082-11.931-29.127-26.646-29.127     c-14.72,0-26.651,13.045-26.651,29.127s11.932,29.268,26.651,29.268c6.502,0,16.847,0.701,24.19-4.716l-0.052-10.349     l-1.827,0.353c-3.417,1.466-7.977,2.308-14.194,2.308c-7.16,0-10.91-0.817-15.842-5.564c-1.021-1.547-1.767-3.35-2.685-5.337     h36.495C485.813,387.004,486.006,385.009,486.006,382.965z M448.986,376.875c1.867-5.789,6.314-9.859,11.499-9.859     c5.188,0,9.631,4.07,11.502,9.859H448.986z M71.242,354.708l-14.231,35.208l-14.231-35.208H25.993l22.623,55.966l0.082,0.2H65.32     l0.083-0.196l22.623-55.97H71.242z M293.448,352.677c0.008-8.418,9.788-7.473,16.278-6.206v-13.538     c-21.891-4.752-31.755,1.979-31.947,17.944v60.281h15.669v-41.835h14.311v-14.428h-14.311V352.677z M399.707,354.512     c-8.838,0.115-17.816,1.121-26.723,3.91v53.041h15.116v-0.353h0.353v-40.922c3.746-1.01,7.432-1.426,11.105-1.482     c8.193,0.345,12.16,5.16,11.907,13.767v28.99h16.01v-29.531C428.064,364.355,418.806,355.213,399.707,354.512z M212.901,383.41     c0,16.081,12.619,28.75,24.468,28.75c11.848,0,13.001-3.706,16.277-4.984l0.047,4.291h14.306v-53.771     c-8.842-2.055-15.315-3.409-25.975-3.409C225.943,354.287,212.901,367.328,212.901,383.41z M252.597,368.902v24.319     c-0.029,1.715-3.735,5.568-10.463,5.505c-6.73-0.064-11.991-6.539-11.991-15.316     C230.143,372.195,240.719,364.399,252.597,368.902z M191.604,355.817c-3.276-1.278-6.844-1.979-10.573-1.979     c-16.081,0-29.123,13.045-29.123,29.127s13.042,29.123,29.123,29.123c8.568,0,17.137-0.629,25.974-2.247V332.68h-15.401V355.817z      M191.604,397.052c-2.229,1.149-4.761,1.807-7.45,1.807c-8.881,0-16.086-7.119-16.086-15.894c0-8.778,7.205-15.894,16.086-15.894     c2.689,0,5.222,0.653,7.45,1.804V397.052z" style="fill-rule:evenodd;clip-rule:evenodd;fill:#E60012;"/></g></g></g></svg>